<?xml version="1.0" encoding="utf-8"?>
<svg viewBox="0 0 2160 288" width="2160" height="288" fill="none" xmlns="http://www.w3.org/2000/svg">
  <path d="M 755.386 17.599 L 761.566 21.329 L 759.926 14.299 L 765.386 9.569 L 758.196 8.959 L 755.386 2.329 L 752.576 8.959 L 745.386 9.569 L 750.846 14.299 L 749.206 21.329 Z"/>
  <g transform="matrix(1.007063, 0, 0, -1.007063, 1165.389561, 1059.320954)" style="">
    <g transform="matrix(0.322342, 0, 0, 0.322342, -1138.698975, 789.977966)" style="">
      <path fill="currentColor" d="M709 722q59 -29 59 -64q0 -16 -15 -48l-276 -560q-11 -22 -33.5 -35.5t-46.5 -13.5h-10q-25 0 -47.5 13.5t-33.5 35.5l-276 560q-15 32 -15 48q0 35 59 64q33 17 50.5 17t26.5 -4t17 -14q9 -12 16.5 -26.5t38.5 -83t66.5 -145.5t67 -145.5t35.5 -76.5l200 438q8 19 14 30 q18 27 44 27t59 -17z"/>
    </g>
  </g>
  <g transform="matrix(0.319297, 0, 0, -0.319297, 258.89933, 259.814461)" style="">
    <path fill="currentColor" d="M384 742q148 0 257 -107t109 -265.5t-104 -270t-256 -111.5t-258.5 110t-106.5 262q0 83 30 155.5t80 121.5t115 77t134 28zM259.5 220.5q57.5 -55.5 128.5 -55.5t128 54t57 145t-57.5 146t-128.5 55t-128 -55.5t-57 -144.5t57.5 -144.5z"/>
  </g>
  <g transform="matrix(0.318565, 0, 0, -0.318565, 518.786576, 260.032265)" style="">
    <path fill="currentColor" d="M51 103q-26 32 -26 57.5t43 67.5q25 24 53 24t78 -50q14 -17 40 -32.5t48 -15.5q93 0 93 76q0 23 -25.5 38.5t-63.5 22.5t-82 22.5t-82 36.5t-63.5 66.5t-25.5 109.5q0 88 65.5 153.5t178.5 65.5q60 0 109.5 -15.5t68.5 -31.5l25 -19q31 -29 31 -49t-24 -55 q-34 -50 -70 -50q-21 0 -52 20q-3 2 -11.5 10t-15.5 13q-21 13 -53.5 13t-54 -15.5t-21.5 -43t25.5 -44.5t63.5 -23t83 -18.5t83 -30.5t63.5 -62.5t25.5 -109.5t-26 -114.5t-68 -76.5q-81 -53 -173 -53q-47 0 -89 11.5t-68 28.5q-53 32 -74 62z"/>
  </g>
  <g transform="matrix(0.326283, 0, 0, -0.326283, 719.21694, 265.635689)" style="">
    <path fill="currentColor" d="M88 734h556q32 0 47 -7.5t20 -23.5t5 -42t-5 -41.5t-17 -21.5q-18 -9 -51 -9h-191v-503q0 -23 -1.5 -34t-9 -25.5t-26.5 -20.5t-50 -6t-49.5 6t-26 20.5t-9 26t-1.5 34.5v502h-192q-32 0 -47 7.5t-20 23.5t-5 42t5 41.5t17 21.5q18 9 51 9z"/>
  </g>
  <g transform="matrix(0.316961, 0, 0, -0.316961, 965.492216, 258.932503)" style="">
    <path fill="currentColor" d="M384 742q148 0 257 -107t109 -265.5t-104 -270t-256 -111.5t-258.5 110t-106.5 262q0 83 30 155.5t80 121.5t115 77t134 28zM259.5 220.5q57.5 -55.5 128.5 -55.5t128 54t57 145t-57.5 146t-128.5 55t-128 -55.5t-57 -144.5t57.5 -144.5z"/>
  </g>
  <g transform="matrix(0.327989, 0, 0, -0.327989, 1241.937171, 263.802101)" style="">
    <path fill="currentColor" d="M354 368q153 -147 217 -221q33 -37 33 -62.5t-40 -60t-65.5 -34.5t-61.5 42l-220 251v-195q0 -24 -1.5 -35t-9.5 -26q-14 -27 -78 -27q-70 0 -82 38q-6 16 -6 51v556q0 23 1.5 34.5t9.5 26.5q14 27 78 27q70 0 83 -37q5 -17 5 -52v-191q136 153 220 251q35 41 61 41 t66 -34.5t40 -60t-30 -60.5q-58 -67 -180 -184z"/>
  </g>
  <path d="M 1583.937 131.15 L 1636.931 163.134 L 1622.868 102.852 L 1669.688 62.292 L 1608.032 57.06 L 1583.937 0.208 L 1559.84 57.06 L 1498.186 62.292 L 1545.005 102.852 L 1530.943 163.134 Z" style="fill: rgb(255, 0, 0);"/>
</svg>